<svg xmlns="http://www.w3.org/2000/svg" viewBox="0 0 64 64">
  <defs>
    <radialGradient id="bg" cx="50%" cy="42%" r="62%">
      <stop offset="0" stop-color="#26334f"/>
      <stop offset="0.5" stop-color="#101522"/>
      <stop offset="1" stop-color="#05070c"/>
    </radialGradient>
    <linearGradient id="blade" x1="24" x2="43" y1="12" y2="48">
      <stop offset="0" stop-color="#ffffff"/>
      <stop offset="0.36" stop-color="#bdc8d1"/>
      <stop offset="1" stop-color="#566170"/>
    </linearGradient>
    <linearGradient id="blood" x1="18" x2="46" y1="42" y2="50">
      <stop offset="0" stop-color="#591019"/>
      <stop offset="0.55" stop-color="#a52231"/>
      <stop offset="1" stop-color="#e06a78"/>
    </linearGradient>
    <filter id="violetGlow" x="-40%" y="-40%" width="180%" height="180%">
      <feGaussianBlur stdDeviation="2.4" result="blur"/>
      <feColorMatrix in="blur" type="matrix" values="0.62 0 0 0 0.35  0 0.3 0 0 0.12  0 0 0.95 0 0.95  0 0 0 0.72 0"/>
      <feBlend in="SourceGraphic" mode="screen"/>
    </filter>
  </defs>
  <circle cx="32" cy="32" r="30" fill="url(#bg)"/>
  <circle cx="32" cy="32" r="28" fill="none" stroke="#4a6fa8" stroke-width="1.8" opacity="0.72"/>
  <circle cx="32" cy="32" r="24" fill="none" stroke="#7b3eb4" stroke-width="1" opacity="0.34"/>
  <g filter="url(#violetGlow)">
    <path d="M36 8 42 14 32 43 23 49 27 39Z" fill="url(#blade)"/>
    <path d="M36 8 34 34 27 39Z" fill="#eef5ff" opacity="0.46"/>
    <path d="M21 45 25 40 43 48 39 53Z" fill="#1d2030" stroke="#8794a2" stroke-width="1.2"/>
    <path d="M18 51c8-5 19-5 29-1-8 5-19 5-29 1Z" fill="url(#blood)" opacity="0.9"/>
    <path d="M41 50c2 3 1 6-2 7-3-2-3-5 0-8Z" fill="#8f2630"/>
  </g>
</svg>
